<svg viewBox="0 0 393.53 393.75" xmlns="http://www.w3.org/2000/svg" xmlns:xlink="http://www.w3.org/1999/xlink" id="Ebene_1" overflow="hidden"><style>
.MsftOfcThm_Accent1_Fill_v2 {
 fill:#0073D2; 
}
</style>
<defs></defs><path d="M298.28 250.34 298.28 365.46C337.77 341.57 368.21 304.22 383.21 259.75 384.56 255.74 385.72 251.65 386.81 247.54 387.2 246.08 387.58 244.61 387.95 243.13 388.86 239.38 389.68 235.57 390.37 231.71 390.72 229.74 390.98 227.74 391.28 225.75 392.58 216.99 393.42 208.09 393.52 198.98 383.99 193.27 372.84 189.84 360.82 189.84 326.27 189.84 298.27 216.93 298.27 250.34M135.09 250.34 135.09 383.87C154.49 390.29 175.22 393.75 196.77 393.75 218.32 393.75 239.67 390.16 259.31 383.56L259.31 250.33C259.31 217.14 231.51 190.25 197.21 190.25 162.91 190.25 135.09 217.16 135.09 250.33M32.73 189.83C20.69 189.83 9.54 193.28 6.39488e-14 198.99 0.1 208.1 0.94 217.04 2.26 225.81 2.55 227.76 2.82 229.75 3.15 231.7 3.86 235.56 4.68 239.36 5.59 243.13 5.94 244.59 6.33 246.06 6.72 247.51 7.81 251.62 8.98 255.73 10.32 259.73 25.32 304.23 55.78 341.56 95.29 365.44L95.29 250.32C95.29 216.91 67.29 189.82 32.74 189.82M387.71 149.69C366.54 63.8 289.2 0 196.77 0 104.34 0 26.99 63.8 5.83 149.71L387.71 149.71Z" class="MsftOfcThm_Accent1_Fill_v2" stroke="none" stroke-width="0" stroke-linecap="butt" stroke-linejoin="miter" stroke-miterlimit="4" fill="#0073D2" fill-opacity="1"/></svg>